<?xml version="1.0" ?><svg height="512" id="Layer_1" version="1.1" viewBox="0 0 512 512" width="512" xml:space="preserve" xmlns="http://www.w3.org/2000/svg" xmlns:cc="http://creativecommons.org/ns#" xmlns:dc="http://purl.org/dc/elements/1.1/" xmlns:inkscape="http://www.inkscape.org/namespaces/inkscape" xmlns:rdf="http://www.w3.org/1999/02/22-rdf-syntax-ns#" xmlns:sodipodi="http://sodipodi.sourceforge.net/DTD/sodipodi-0.dtd" xmlns:svg="http://www.w3.org/2000/svg"><defs id="defs12"/><g id="g3859"><rect height="512" id="rect2987" style="fill:#018dcb;fill-opacity:1;fill-rule:nonzero;stroke:none" width="512" x="0" y="0"/><path d="m 349.74531,119.86728 c -22.1946,-13.66894 -43.1405,-18.97913 -64.0762,-32.655268 -12.9783,-8.68533 -31.0093,-29.42828 -46.1572,-47.26509 -2.781,28.74491 -11.5124,40.45868 -21.5199,48.83614 -21.2062,16.711758 -34.5658,21.752908 -52.9277,31.838088 -15.4141,7.98181 -99.185812,58.26959 -98.749872,165.70766 0.44167,107.41793 91.439872,186.13555 192.100272,185.72265 100.7036,-0.41003 187.7224,-73.62756 187.2708,-183.95738 -0.4518,-110.3399 -82.5446,-159.96013 -95.9402,-168.2268 z m 2.9666,309.79765 c -2.0976,2.07171 -21.2552,15.48745 -43.7993,17.67568 -22.5543,2.15516 -53.0617,3.53486 -71.4926,-13.04743 -2.9277,-2.91477 -2.1378,-7.04523 -0.033,-8.71555 2.0746,-1.70627 3.7407,-2.968 6.2555,-2.97519 2.519,-0.008 2.0645,-0.008 3.3478,0.82005 8.386,6.6424 20.9228,11.98135 47.6464,11.86914 26.7594,-0.11074 45.5458,-7.64373 53.8556,-13.9538 3.7507,-2.92197 5.4253,-0.42729 5.8699,1.24446 0.4071,1.65592 1.2631,4.17074 -1.6502,7.08264 z m -72.5529,-34.74854 c 4.5808,-4.20096 12.1051,-10.89659 19.192,-13.83007 7.0986,-2.95362 10.8132,-2.54791 17.529,-2.57669 6.6683,-0.0302 13.8099,0.36255 18.8122,3.69455 5.0095,3.31616 7.9862,10.77862 9.6421,14.90189 1.7077,4.18513 0.031,6.67837 -3.2774,8.37746 -2.9075,1.65448 -3.3391,0.83443 -6.2884,-4.552 -2.9249,-5.39794 -5.4555,-10.82322 -20.0884,-10.76136 -14.6113,0.0647 -19.1992,5.09438 -26.2804,10.95271 -7.0711,5.8425 -9.5846,7.94586 -12.1095,4.62249 -2.5162,-3.31041 -1.6976,-6.6568 2.8688,-10.82898 z m 150.4734,-79.98797 c 0.049,12.89924 -4.0197,36.22607 -14.0142,50.83735 -9.9269,14.6343 -16.1679,20.08259 -27.9162,19.28412 -15.0587,-1.20561 -45.3071,-47.70677 -64.5207,-48.47647 -24.2045,-0.72509 -76.6588,50.73665 -118.0325,50.90209 -25.0777,0.10071 -32.5876,-3.61397 -40.9579,-9.01191 -12.5971,-8.69253 -18.913,-21.98454 -18.5763,-40.31626 0.3064,-32.49412 30.6468,-62.97553 69.1058,-63.53949 48.8461,-0.62727 82.9315,47.91826 107.5502,47.42623 20.9041,-0.47764 60.8592,-41.47727 80.4973,-41.5564 20.8767,-0.0863 26.8069,21.50833 26.8645,34.45074 z" id="Drupal_2_" style="fill:#ffffff"/></g></svg>